<svg width="40" height="40" viewBox="0 0 40 40" fill="none" xmlns="http://www.w3.org/2000/svg">
<path d="M24.6364 16.4546C24.6364 16.3636 24.6364 16.2727 24.6364 16.1818C24.6364 16.1212 24.6364 16.0303 24.6364 15.9697C24.3939 13.4243 22.2727 11.4243 19.6667 11.4243C18.2121 11.4243 16.8788 12.0606 15.9697 13.0606C15.6667 13.3636 15.2727 13.7879 14.8182 14.2424C14.3636 13.7879 14 13.3636 13.6667 13.0606C12.7576 12.0606 11.4242 11.4243 9.9697 11.4243C7.36364 11.4243 5.24242 13.4243 5 15.9697C5 16.0606 5 16.1515 5 16.2424C5 16.303 5 16.3636 5 16.4546C5 17.7273 5.48485 19.0303 6.45455 20C8 21.5455 14.2727 28.3636 14.2727 28.3636C14.4242 28.4849 14.6061 28.5758 14.8485 28.5758C15.0606 28.5758 15.2727 28.4849 15.4242 28.3636C15.4242 28.3636 21.697 21.5152 23.2424 20C24.1515 19 24.6364 17.7273 24.6364 16.4546ZM21.5152 18.3333C20.3636 19.4849 16.697 23.4546 14.7879 25.5152C12.8788 23.4546 9.21212 19.4849 8.06061 18.3333C7.57576 17.8485 7.27273 17.1818 7.27273 16.4546C7.27273 16.394 7.27273 16.3636 7.27273 16.3333V16.2424C7.27273 16.2121 7.27273 16.2121 7.27273 16.1818C7.39394 14.8182 8.54545 13.7576 9.93939 13.7576C10.697 13.7576 11.3939 14.0606 11.9091 14.6364L11.9394 14.6667L11.9697 14.697C12.2727 15 12.6364 15.394 13.0909 15.8485L14.7879 17.6364L16.4848 15.8485C16.9394 15.3636 17.303 14.9697 17.6061 14.697L17.6364 14.6667L17.6667 14.6364C18.1818 14.0606 18.8788 13.7576 19.6364 13.7576C21 13.7576 22.1515 14.7879 22.303 16.1515V16.1818C22.303 16.2121 22.303 16.2727 22.303 16.303C22.303 16.3333 22.303 16.394 22.303 16.4243V16.4546C22.303 17.1515 22.0303 17.8182 21.5152 18.3333Z" fill="black"/>
<path d="M34.9695 16.2727C34.9695 16.2424 34.9695 16.2121 34.9695 16.1818V16.1212C34.9695 16.0606 34.9695 16.0303 34.9695 15.9697C34.7271 13.394 32.5756 11.4243 29.9998 11.4243C28.6059 11.4243 27.2422 12.0303 26.3028 13.0606C26.0907 13.2727 25.8483 13.5152 25.5756 13.7879C25.5149 13.8485 25.4846 13.9697 25.5149 14.0606C25.7271 14.6364 25.8786 15.2121 25.9392 15.8182C25.9392 15.8788 25.9392 15.9697 25.9392 16.0303V16.0909V16.1515C25.9392 16.2424 25.9998 16.3333 26.121 16.3636C26.1513 16.3636 26.1816 16.394 26.2119 16.394C26.2725 16.394 26.3331 16.3636 26.3937 16.303L26.818 15.8485C27.2725 15.3636 27.6665 14.9697 27.9392 14.697L27.9695 14.6667L27.9998 14.6364C28.5149 14.0606 29.2119 13.7576 29.9695 13.7576C31.3331 13.7576 32.4846 14.7879 32.6362 16.1515V16.1818C32.6362 16.2121 32.6362 16.2727 32.6362 16.303C32.6362 16.3333 32.6362 16.394 32.6362 16.4243V16.4546C32.6362 17.1515 32.3634 17.8485 31.8483 18.3333C30.7271 19.4546 27.1513 23.3333 25.121 25.5152C24.4543 24.7879 23.5756 23.8182 22.6362 22.8182C22.5756 22.7576 22.5149 22.7273 22.4543 22.7273C22.3937 22.7273 22.3028 22.7576 22.2725 22.8182C21.8786 23.2424 21.4543 23.697 21.0301 24.1515C20.9392 24.2424 20.9392 24.394 21.0301 24.4849C22.6665 26.2727 24.2119 27.9394 24.5149 28.2727C24.5149 28.2727 24.5149 28.2727 24.5452 28.303L24.5756 28.3333C24.7271 28.4849 24.9392 28.5455 25.121 28.5455C25.3331 28.5455 25.5149 28.4546 25.6968 28.3333L25.7574 28.2727C25.7574 28.2727 25.7574 28.2727 25.7877 28.2424C26.424 27.5455 32.0907 21.3636 33.5452 19.9394C34.4846 19 34.9998 17.7273 34.9998 16.394C34.9998 16.394 34.9998 16.394 34.9998 16.3636C34.9695 16.3636 34.9695 16.3333 34.9695 16.2727Z" fill="black"/>
</svg>
